HIERARCHY
ROOT Hips
{
  OFFSET 5.84602e-005 68.8428 3.50346
  CHANNELS 6 Xposition Yposition Zposition Zrotation Xrotation Yrotation
  JOINT Spine
  {
    OFFSET 0 8.597 -4.6522
    CHANNELS 3 Zrotation Xrotation Yrotation
    JOINT Spine1
    {
      OFFSET 0 7.8454 0.4098
      CHANNELS 3 Zrotation Xrotation Yrotation
      JOINT Spine2
      {
        OFFSET 0 9.7078 -2.1609
        CHANNELS 3 Zrotation Xrotation Yrotation
        JOINT Neck
        {
          OFFSET 0 21.8761 -0.4549
          CHANNELS 3 Zrotation Xrotation Yrotation
          JOINT Head
          {
            OFFSET 0 12.3537 3.3602
            CHANNELS 3 Zrotation Xrotation Yrotation
            End Site
            {
              OFFSET 0.0001 18.9506 0.5657
            }
          }
        }
        JOINT LeftShoulder
        {
          OFFSET 2.2086 21.1115 7.2329
          CHANNELS 3 Zrotation Xrotation Yrotation
          JOINT LeftArm
          {
            OFFSET 13.1193 3.0282 -4.8998
            CHANNELS 3 Zrotation Xrotation Yrotation
            JOINT LeftForeArm
            {
              OFFSET 27.4081 -0.0973053 -0.2375
              CHANNELS 3 Zrotation Xrotation Yrotation
              JOINT LeftHand
              {
                OFFSET 22.8641 0.0662994 -0.1369
                CHANNELS 3 Zrotation Xrotation Yrotation
                JOINT LeftHandIndex1
                {
                  OFFSET 8.8614 0.775009 2.4612
                  CHANNELS 3 Zrotation Xrotation Yrotation
                  JOINT LeftHandIndex2
                  {
                    OFFSET 3.3146 -0.808304 0.5841
                    CHANNELS 3 Zrotation Xrotation Yrotation
                    JOINT LeftHandIndex3
                    {
                      OFFSET 2.2628 -0.552002 0.3989
                      CHANNELS 3 Zrotation Xrotation Yrotation
                      End Site
                      {
                        OFFSET 1.6102 -0.4807 0.2612
                      }
                    }
                  }
                }
                JOINT LeftHandMiddle1
                {
                  OFFSET 8.9937 0.895004 0.2143
                  CHANNELS 3 Zrotation Xrotation Yrotation
                  JOINT LeftHandMiddle2
                  {
                    OFFSET 4.0984 0.0113983 -0.0242
                    CHANNELS 3 Zrotation Xrotation Yrotation
                    JOINT LeftHandMiddle3
                    {
                      OFFSET 2.2716 0.00689697 -0.0138001
                      CHANNELS 3 Zrotation Xrotation Yrotation
                      End Site
                      {
                        OFFSET 2.0404 -0.1441 0.0027
                      }
                    }
                  }
                }
                JOINT LeftHandRing1
                {
                  OFFSET 8.5234 0.597198 -2.0164
                  CHANNELS 3 Zrotation Xrotation Yrotation
                  JOINT LeftHandRing2
                  {
                    OFFSET 3.7188 -0.188293 -0.2328
                    CHANNELS 3 Zrotation Xrotation Yrotation
                    JOINT LeftHandRing3
                    {
                      OFFSET 2.1191 -0.106598 -0.1332
                      CHANNELS 3 Zrotation Xrotation Yrotation
                      End Site
                      {
                        OFFSET 1.8737 -0.2304 -0.0886
                      }
                    }
                  }
                }
                JOINT LeftHandPinky1
                {
                  OFFSET 7.9094 -0.601089 -3.4825
                  CHANNELS 3 Zrotation Xrotation Yrotation
                  JOINT LeftHandPinky2
                  {
                    OFFSET 2.2874 -0.477005 -0.6314
                    CHANNELS 3 Zrotation Xrotation Yrotation
                    JOINT LeftHandPinky3
                    {
                      OFFSET 1.6774 -0.349396 -0.4633
                      CHANNELS 3 Zrotation Xrotation Yrotation
                      End Site
                      {
                        OFFSET 1.4888 -0.4091 -0.3416
                      }
                    }
                  }
                }
                JOINT LeftHandThumb1
                {
                  OFFSET 1.833 -1.3875 1.3896
                  CHANNELS 3 Zrotation Xrotation Yrotation
                  JOINT LeftHandThumb2
                  {
                    OFFSET 3.4129 -1.121 2.5732
                    CHANNELS 3 Zrotation Xrotation Yrotation
                    JOINT LeftHandThumb3
                    {
                      OFFSET 2.2474 -0.804199 1.6192
                      CHANNELS 3 Zrotation Xrotation Yrotation
                      End Site
                      {
                        OFFSET 1.6527 -0.5689 1.1317
                      }
                    }
                  }
                }
              }
            }
          }
        }
        JOINT RightShoulder
        {
          OFFSET -2.2086 21.1115 7.2329
          CHANNELS 3 Zrotation Xrotation Yrotation
          JOINT RightArm
          {
            OFFSET -13.1216 3.0287 -4.9007
            CHANNELS 3 Zrotation Xrotation Yrotation
            JOINT RightForeArm
            {
              OFFSET -27.4081 -0.0973053 -0.2375
              CHANNELS 3 Zrotation Xrotation Yrotation
              JOINT RightHand
              {
                OFFSET -22.8641 0.0664063 -0.1369
                CHANNELS 3 Zrotation Xrotation Yrotation
                JOINT RightHandIndex1
                {
                  OFFSET -8.8614 0.774994 2.4612
                  CHANNELS 3 Zrotation Xrotation Yrotation
                  JOINT RightHandIndex2
                  {
                    OFFSET -3.3146 -0.808304 0.5841
                    CHANNELS 3 Zrotation Xrotation Yrotation
                    JOINT RightHandIndex3
                    {
                      OFFSET -2.2628 -0.552002 0.3989
                      CHANNELS 3 Zrotation Xrotation Yrotation
                      End Site
                      {
                        OFFSET -1.6102 -0.4807 0.2612
                      }
                    }
                  }
                }
                JOINT RightHandMiddle1
                {
                  OFFSET -8.9937 0.894989 0.2143
                  CHANNELS 3 Zrotation Xrotation Yrotation
                  JOINT RightHandMiddle2
                  {
                    OFFSET -4.0984 0.0113983 -0.0242
                    CHANNELS 3 Zrotation Xrotation Yrotation
                    JOINT RightHandMiddle3
                    {
                      OFFSET -2.2716 0.00691223 -0.0138001
                      CHANNELS 3 Zrotation Xrotation Yrotation
                      End Site
                      {
                        OFFSET -2.0404 -0.1441 0.0027
                      }
                    }
                  }
                }
                JOINT RightHandRing1
                {
                  OFFSET -8.5234 0.597198 -2.0164
                  CHANNELS 3 Zrotation Xrotation Yrotation
                  JOINT RightHandRing2
                  {
                    OFFSET -3.7188 -0.188309 -0.2328
                    CHANNELS 3 Zrotation Xrotation Yrotation
                    JOINT RightHandRing3
                    {
                      OFFSET -2.1191 -0.106598 -0.1332
                      CHANNELS 3 Zrotation Xrotation Yrotation
                      End Site
                      {
                        OFFSET -1.8737 -0.2304 -0.0886
                      }
                    }
                  }
                }
                JOINT RightHandPinky1
                {
                  OFFSET -7.9094 -0.601105 -3.4825
                  CHANNELS 3 Zrotation Xrotation Yrotation
                  JOINT RightHandPinky2
                  {
                    OFFSET -2.2874 -0.477005 -0.6314
                    CHANNELS 3 Zrotation Xrotation Yrotation
                    JOINT RightHandPinky3
                    {
                      OFFSET -1.6774 -0.349396 -0.4633
                      CHANNELS 3 Zrotation Xrotation Yrotation
                      End Site
                      {
                        OFFSET -1.4888 -0.4091 -0.3416
                      }
                    }
                  }
                }
                JOINT RightHandThumb1
                {
                  OFFSET -1.833 -1.38751 1.3896
                  CHANNELS 3 Zrotation Xrotation Yrotation
                  JOINT RightHandThumb2
                  {
                    OFFSET -3.41299 -1.12099 2.5732
                    CHANNELS 3 Zrotation Xrotation Yrotation
                    JOINT RightHandThumb3
                    {
                      OFFSET -2.24741 -0.804108 1.6192
                      CHANNELS 3 Zrotation Xrotation Yrotation
                      End Site
                      {
                        OFFSET -1.6527 -0.5689 1.1317
                      }
                    }
                  }
                }
              }
            }
          }
        }
      }
    }
  }
  JOINT RightUpLeg
  {
    OFFSET -9.1966 3.8861 -0.7581
    CHANNELS 3 Zrotation Xrotation Yrotation
    JOINT RightLeg
    {
      OFFSET -0.7359 -41.0265 0
      CHANNELS 3 Zrotation Xrotation Yrotation
      JOINT RightFoot
      {
        OFFSET 0 -40.2855 0
        CHANNELS 3 Zrotation Xrotation Yrotation
        JOINT RightToeBase
        {
          OFFSET 0 -5.6122 11.7359
          CHANNELS 3 Zrotation Xrotation Yrotation
          End Site
          {
            OFFSET 0 0 7.8731
          }
        }
      }
    }
  }
  JOINT LeftUpLeg
  {
    OFFSET 9.1965 3.8864 -0.7581
    CHANNELS 3 Zrotation Xrotation Yrotation
    JOINT LeftLeg
    {
      OFFSET 0.7359 -41.0268 0
      CHANNELS 3 Zrotation Xrotation Yrotation
      JOINT LeftFoot
      {
        OFFSET 0 -40.2855 0
        CHANNELS 3 Zrotation Xrotation Yrotation
        JOINT LeftToeBase
        {
          OFFSET 0 -5.6122 11.7359
          CHANNELS 3 Zrotation Xrotation Yrotation
          End Site
          {
            OFFSET 0 0 7.8731
          }
        }
      }
    }
  }
}
MOTION
Frames:	4
Frame Time:	0.0333333
0.791476 14.159 18.3664 175.356 -87.4295 -4.4277 -0.0923763 -3.6771 -0.280783 -0.203482 -7.35363 -0.569284 -0.203482 -7.35366 -0.569284 7.01093 -3.386 -4.58549 3.09561e-007 -13.1526 -9.78314e-008 10.7943 5.68531 -16.5953 -17.0284 -17.1321 -31.7276 2.36798 7.98243 -45.9145 59.2987 -1.68172 -5.62486 -1.19886e-006 -3.27812e-008 5.73177e-008 -8.90947e-007 -3.243e-007 1.11268e-008 -1.47398e-006 -9.40119e-007 -2.39373e-008 -1.19886e-006 -3.27812e-008 5.73177e-008 -0.0146245 -8.89786e-005 -9.13287e-007 -1.47396e-006 -9.40116e-007 -2.40561e-008 -1.19886e-006 -3.27812e-008 5.73177e-008 -0.0187279 -0.00117536 6.01486e-005 -1.47395e-006 -9.40112e-007 -2.40759e-008 -1.19886e-006 -3.27812e-008 5.73177e-008 -0.0122422 -0.00324029 0.0006685 -1.47397e-006 -9.40102e-007 -2.39972e-008 -1.19886e-006 -3.27812e-008 5.73177e-008 -8.90947e-007 -3.243e-007 1.11268e-008 -1.47398e-006 -9.40119e-007 -2.39373e-008 22.4112 3.25991 2.25549 8.38452 9.15717 42.0129 -11.5701 -13.3117 27.2461 -58.0718 0.725616 3.82099 1.59028e-015 1.59028e-015 9.54166e-015 6.36111e-015 0 3.18055e-015 4.77083e-015 1.59028e-015 -0 1.59028e-015 1.59028e-015 9.54166e-015 0.0149601 -9.41173e-005 -5.22212e-006 -3.18055e-015 0 9.54166e-015 1.59028e-015 1.59028e-015 9.54166e-015 0.0190374 -0.0011933 -5.55561e-005 1.59028e-014 -1.59028e-014 9.54166e-015 1.59028e-015 1.59028e-015 9.54166e-015 0.0122617 -0.00324705 -0.000684778 -1.80916e-007 -2.32732e-007 -5.08882e-007 1.59028e-015 1.59028e-015 9.54166e-015 6.36111e-015 0 3.18055e-015 4.77083e-015 1.59028e-015 -0 -14.2338 -36.8669 -25.8055 5.86887 41.1275 -4.0149 -3.8832 50.5669 7.59874 -6.57295e-008 -3.24932e-008 -2.00411e-007 13.3903 -36.0432 25.2462 -5.68162 39.3982 4.11853 3.8069 50.252 -7.40939 3.26382e-006 6.35388e-006 6.02318e-007 
0.792921 14.4688 18.558 176.658 -86.1478 -3.11295 -0.090332 -3.79078 -0.281811 -0.200055 -7.581 -0.571508 -0.200055 -7.58103 -0.571509 7.0164 -4.06196 -4.50211 4.61626e-007 -13.2524 -1.59976e-006 11.1661 5.09524 -15.9196 -17.1377 -17.0606 -31.9179 2.36376 7.98035 -46.6613 59.3672 -1.536 -5.12693 -5.82992e-007 -6.15855e-007 -3.51798e-008 -2.75065e-007 -9.07351e-007 -8.13717e-008 -1.59028e-015 2.98177e-015 7.95139e-016 -5.82992e-007 -6.15855e-007 -3.51798e-008 -0.0145907 -8.8081e-005 -8.61511e-006 2.75869e-033 3.97569e-016 -3.97569e-016 -5.82992e-007 -6.15855e-007 -3.51798e-008 -0.0187762 -0.0011787 6.01313e-005 -1.72418e-032 -2.48481e-015 -3.97569e-016 -5.82992e-007 -6.15855e-007 -3.51798e-008 -0.0122394 -0.00324136 0.000681512 -3.18055e-015 -2.98177e-015 3.97569e-016 -5.82992e-007 -6.15855e-007 -3.51798e-008 -2.75065e-007 -9.07351e-007 -8.13717e-008 -1.59028e-015 2.98177e-015 7.95139e-016 22.0935 2.94784 1.91969 8.43504 9.22498 42.3685 -11.6186 -13.3398 27.6468 -58.2403 0.656378 3.48459 4.77083e-015 -1.59028e-015 3.18055e-015 0 0 -0 1.59028e-015 0 -3.18055e-015 4.77083e-015 -1.59028e-015 3.18055e-015 0.0149968 -9.24475e-005 -1.30876e-006 1.59028e-015 -1.59028e-015 -0 4.77083e-015 -1.59028e-015 3.18055e-015 0.0190293 -0.0011933 -5.554e-005 -0 -1.59028e-015 -0 4.77083e-015 -1.59028e-015 3.18055e-015 0.0122297 -0.00323684 -0.000674599 1.59028e-015 1.59028e-015 9.54166e-015 4.77083e-015 -1.59028e-015 3.18055e-015 0 0 -0 1.59028e-015 0 -3.18055e-015 -14.8611 -38.4224 -26.9606 5.81822 41.5761 -4.03759 -4.6582 50.5184 8.36132 -2.01215e-006 1.05888e-005 -1.50233e-006 14.0268 -37.6469 26.3648 -5.66399 39.9186 4.16294 4.54881 50.1683 -8.15482 2.6962e-007 -1.353e-007 7.98533e-007 
0.794421 14.7798 18.7458 177.305 -84.8662 -2.45165 -0.0882762 -3.90434 -0.282808 -0.196608 -7.80813 -0.573668 -0.196608 -7.80813 -0.573667 7.02284 -4.73823 -4.41853 -1.09391e-007 -13.3523 -6.12491e-007 11.5444 4.50984 -15.241 -17.2466 -16.9888 -32.1081 2.3595 7.97834 -47.4079 59.4345 -1.3897 -4.62926 0 8.94531e-016 -0 1.65521e-032 2.38542e-015 -3.97569e-016 0 6.95746e-016 -0 0 8.94531e-016 -0 -0.0146183 -8.89612e-005 1.15036e-006 6.36111e-015 6.95746e-016 -0 0 8.94531e-016 -0 -0.0187877 -0.00117726 5.44344e-005 -1.37935e-032 -4.96962e-016 -1.59028e-015 0 8.94531e-016 -0 -0.0122171 -0.00323445 0.000679814 3.18055e-015 6.95746e-016 -3.97569e-016 0 8.94531e-016 -0 1.65521e-032 2.38542e-015 -3.97569e-016 0 6.95746e-016 -0 21.7742 2.63767 1.58229 8.48512 9.29309 42.724 -11.667 -13.3683 28.0475 -58.4092 0.588139 3.14803 -6.36111e-015 -1.59028e-015 -0 -0 0 3.18055e-015 -3.18055e-015 1.59028e-015 3.18055e-015 -6.36111e-015 -1.59028e-015 -0 0.0150004 -9.23552e-005 -6.38521e-006 -5.29669e-031 3.18055e-015 9.54166e-015 -6.36111e-015 -1.59028e-015 -0 0.0189789 -0.001189 -5.36057e-005 -1.32417e-030 4.77083e-015 1.59028e-014 -6.36111e-015 -1.59028e-015 -0 0.0122969 -0.00325391 -0.000677406 3.18055e-015 1.59028e-015 -3.18055e-015 -6.36111e-015 -1.59028e-015 -0 -0 0 3.18055e-015 -3.18055e-015 1.59028e-015 3.18055e-015 -15.5416 -39.9648 -28.1613 5.76789 42.0238 -4.05981 -5.43147 50.4637 9.12181 -2.64195e-006 5.31148e-006 -3.23071e-007 14.7163 -39.2375 27.529 -5.64748 40.4384 4.20751 5.28786 50.0784 -8.89696 1.86671e-006 -1.02602e-007 2.58891e-007 
0.795971 15.0921 18.9299 177.691 -83.5853 -2.05202 -0.0862109 -4.01766 -0.283775 -0.193142 -8.03486 -0.575759 -0.193142 -8.03486 -0.575759 7.03024 -5.41485 -4.33479 1.20144e-006 -13.4521 3.05228e-007 11.929 3.92925 -14.5594 -17.3553 -16.9166 -32.298 2.35521 7.97638 -48.1543 59.5004 -1.24285 -4.13188 1.59028e-015 1.08338e-014 -3.97569e-016 -3.18055e-015 1.10325e-014 3.97569e-016 -1.59028e-015 1.05356e-014 3.97569e-016 1.59028e-015 1.08338e-014 -3.97569e-016 -0.0146114 -8.8612e-005 2.19811e-007 -1.59028e-015 6.95746e-016 -1.19271e-015 1.59028e-015 1.08338e-014 -3.97569e-016 -0.0187701 -0.00117508 5.24909e-005 -1.59028e-015 -3.57812e-015 7.95139e-016 1.59028e-015 1.08338e-014 -3.97569e-016 -0.0122656 -0.00324764 0.000684182 -3.18055e-015 -5.96354e-016 3.97569e-016 1.59028e-015 1.08338e-014 -3.97569e-016 -3.18055e-015 1.10325e-014 3.97569e-016 -1.59028e-015 1.05356e-014 3.97569e-016 21.4531 2.32942 1.24333 8.53477 9.36151 43.0795 -11.7151 -13.3971 28.4481 -58.5785 0.520908 2.81128 3.18055e-015 0 3.18055e-015 3.18055e-015 -3.18055e-015 3.18055e-015 6.36111e-015 0 -9.54166e-015 3.18055e-015 0 3.18055e-015 0.0150169 -8.97908e-005 1.6106e-006 0 0 -0 3.18055e-015 0 3.18055e-015 0.0189859 -0.00119243 -5.87998e-005 7.95139e-015 6.36111e-015 -6.36111e-015 3.18055e-015 0 3.18055e-015 0.0122545 -0.00324232 -0.000674119 -1.89344e-007 -2.26996e-007 -5.20194e-007 3.18055e-015 0 3.18055e-015 3.18055e-015 -3.18055e-015 3.18055e-015 6.36111e-015 0 -9.54166e-015 -16.2788 -41.4924 -29.4113 5.7179 42.4708 -4.08164 -6.20273 50.4025 9.87994 -6.58041e-008 -3.23942e-008 -2.00406e-007 15.4622 -40.8131 28.7426 -5.63196 40.9574 4.25218 6.02383 49.9826 -9.6356 2.13669e-006 -2.38496e-007 1.05689e-006 
